<?xml version="1.0" encoding="utf-8"?>
<!-- Generator: Adobe Illustrator 15.1.0, SVG Export Plug-In . SVG Version: 6.00 Build 0)  -->
<!DOCTYPE svg PUBLIC "-//W3C//DTD SVG 1.1//EN" "http://www.w3.org/Graphics/SVG/1.1/DTD/svg11.dtd">
<svg version="1.1" id="Layer_1" xmlns="http://www.w3.org/2000/svg" xmlns:xlink="http://www.w3.org/1999/xlink" x="0px" y="0px"
	 width="45px" height="33.5px" viewBox="0 0 45 33.5" enable-background="new 0 0 45 33.5" xml:space="preserve">
<path fill="#4E4E4E" d="M35.089,16.287c0.191-0.301,0.401-0.517,0.626-0.647c0.226-0.13,0.497-0.195,0.812-0.195
	c0.356,0,0.661,0.127,0.914,0.38s0.38,0.558,0.38,0.914c0,0.452-0.168,0.925-0.503,1.418c-0.336,0.493-0.826,0.979-1.469,1.459
	c-2.356,1.712-4.466,2.952-6.329,3.719c-1.863,0.768-3.651,1.151-5.363,1.151c-2.247,0-4.106-0.541-5.579-1.624
	c-1.473-1.082-2.209-2.432-2.209-4.048c0-0.835,0.24-1.542,0.719-2.117s1.205-1.021,2.178-1.335
	c-0.562-0.712-1.195-1.26-1.901-1.644c-0.706-0.383-1.49-0.603-2.353-0.658c-0.055,1.37-0.552,2.586-1.49,3.647
	c-0.938,1.062-2.346,2.003-4.223,2.826c0.165,0.589,0.411,1.031,0.74,1.325c0.329,0.295,0.74,0.442,1.233,0.442
	c0.301,0,0.609-0.079,0.925-0.236c0.315-0.157,0.623-0.387,0.925-0.688c0.055,0.219,0.096,0.438,0.123,0.658
	s0.042,0.431,0.042,0.637c0,0.795-0.247,1.436-0.74,1.921c-0.493,0.486-1.144,0.729-1.952,0.729c-0.945,0-1.723-0.308-2.333-0.925
	c-0.61-0.616-1.051-1.541-1.325-2.774l-0.801-0.349c0.082-0.301,0.195-0.593,0.339-0.874c0.144-0.281,0.325-0.544,0.544-0.791
	c0.424-1.877,1.174-3.329,2.25-4.356c1.075-1.027,2.572-1.712,4.49-2.055c-0.493-0.753-1.466-1.301-2.917-1.644
	c-0.288-0.068-0.514-0.123-0.678-0.165c-0.836-0.219-1.435-0.51-1.798-0.873C8.003,9.154,7.821,8.678,7.821,8.088
	c0-0.726,0.301-1.301,0.904-1.726c0.603-0.424,1.425-0.637,2.466-0.637c-0.233,0.219-0.397,0.431-0.493,0.637
	c-0.096,0.206-0.144,0.425-0.144,0.658c0,0.384,0.116,0.736,0.35,1.058C11.137,8.4,11.5,8.726,11.993,9.054
	c0.068,0.041,0.185,0.117,0.35,0.226c1.397,0.904,2.281,1.836,2.65,2.794c1,0.028,1.925,0.229,2.774,0.606
	c0.849,0.377,1.644,0.949,2.383,1.716c-0.288-0.589-0.507-1.133-0.657-1.634c-0.151-0.5-0.226-0.956-0.226-1.366
	c0-1.151,0.394-2.076,1.182-2.774c0.788-0.699,1.839-1.048,3.154-1.048c1.589,0,2.891,0.462,3.904,1.387
	c1.014,0.924,1.719,2.284,2.117,4.079c0.109,0.493,0.247,1.185,0.411,2.076c0.63,3.219,1.617,4.829,2.959,4.829
	c0.767,0,1.36-0.202,1.778-0.606c0.417-0.404,0.626-0.99,0.626-1.757c-0.014-0.206-0.044-0.415-0.092-0.627
	C35.257,16.743,35.185,16.521,35.089,16.287z M13.965,13.102c-1.452,0.22-2.565,0.709-3.339,1.469
	c-0.774,0.761-1.284,1.867-1.531,3.319c1.603-0.466,2.805-1.092,3.606-1.88C13.503,15.222,13.924,14.253,13.965,13.102z"/>
</svg>
